<svg width="820" height="322" viewBox="0 0 820 322" fill="none" xmlns="http://www.w3.org/2000/svg">
<g filter="url(#filter0_d_6_227)">
<rect x="11" y="7" width="242" height="76" rx="10" fill="white"/>
</g>
<g filter="url(#filter1_d_6_227)">
<rect x="11" y="119" width="242" height="76" rx="10" fill="white"/>
</g>
<g filter="url(#filter2_d_6_227)">
<rect x="11" y="231" width="242" height="76" rx="10" fill="white"/>
</g>
<g filter="url(#filter3_d_6_227)">
<rect x="289" y="7" width="242" height="76" rx="10" fill="white"/>
</g>
<g filter="url(#filter4_d_6_227)">
<rect x="289" y="119" width="242" height="76" rx="10" fill="white"/>
</g>
<g filter="url(#filter5_d_6_227)">
<rect x="289" y="231" width="242" height="76" rx="10" fill="white"/>
</g>
<g filter="url(#filter6_d_6_227)">
<rect x="567" y="7" width="242" height="76" rx="10" fill="white"/>
</g>
<g filter="url(#filter7_d_6_227)">
<rect x="567" y="119" width="242" height="76" rx="10" fill="white"/>
</g>
<g filter="url(#filter8_d_6_227)">
<rect x="567" y="231" width="242" height="76" rx="10" fill="white"/>
</g>
<path d="M648.616 47.9H644.066L643.198 50H640.874L645.242 40.2H647.482L651.864 50H649.484L648.616 47.9ZM647.902 46.178L646.348 42.426L644.794 46.178H647.902ZM660.178 42.468V50H658.106V49.104C657.817 49.4307 657.471 49.6827 657.07 49.86C656.669 50.028 656.235 50.112 655.768 50.112C654.779 50.112 653.995 49.8273 653.416 49.258C652.837 48.6887 652.548 47.844 652.548 46.724V42.468H654.732V46.402C654.732 47.6153 655.241 48.222 656.258 48.222C656.781 48.222 657.201 48.054 657.518 47.718C657.835 47.3727 657.994 46.864 657.994 46.192V42.468H660.178ZM669.873 39.612V50H667.787V49.132C667.246 49.7853 666.462 50.112 665.435 50.112C664.726 50.112 664.082 49.9533 663.503 49.636C662.934 49.3187 662.486 48.866 662.159 48.278C661.833 47.69 661.669 47.0087 661.669 46.234C661.669 45.4593 661.833 44.778 662.159 44.19C662.486 43.602 662.934 43.1493 663.503 42.832C664.082 42.5147 664.726 42.356 665.435 42.356C666.397 42.356 667.148 42.6593 667.689 43.266V39.612H669.873ZM665.813 48.32C666.364 48.32 666.821 48.1333 667.185 47.76C667.549 47.3773 667.731 46.8687 667.731 46.234C667.731 45.5993 667.549 45.0953 667.185 44.722C666.821 44.3393 666.364 44.148 665.813 44.148C665.253 44.148 664.791 44.3393 664.427 44.722C664.063 45.0953 663.881 45.5993 663.881 46.234C663.881 46.8687 664.063 47.3773 664.427 47.76C664.791 48.1333 665.253 48.32 665.813 48.32ZM671.895 42.468H674.079V50H671.895V42.468ZM672.987 41.418C672.585 41.418 672.259 41.3013 672.007 41.068C671.755 40.8347 671.629 40.5453 671.629 40.2C671.629 39.8547 671.755 39.5653 672.007 39.332C672.259 39.0987 672.585 38.982 672.987 38.982C673.388 38.982 673.715 39.094 673.967 39.318C674.219 39.542 674.345 39.822 674.345 40.158C674.345 40.522 674.219 40.8253 673.967 41.068C673.715 41.3013 673.388 41.418 672.987 41.418ZM679.69 50.112C678.896 50.112 678.182 49.9487 677.548 49.622C676.922 49.286 676.432 48.824 676.078 48.236C675.723 47.648 675.546 46.9807 675.546 46.234C675.546 45.4873 675.723 44.82 676.078 44.232C676.432 43.644 676.922 43.1867 677.548 42.86C678.182 42.524 678.896 42.356 679.69 42.356C680.483 42.356 681.192 42.524 681.818 42.86C682.443 43.1867 682.933 43.644 683.288 44.232C683.642 44.82 683.82 45.4873 683.82 46.234C683.82 46.9807 683.642 47.648 683.288 48.236C682.933 48.824 682.443 49.286 681.818 49.622C681.192 49.9487 680.483 50.112 679.69 50.112ZM679.69 48.32C680.25 48.32 680.707 48.1333 681.062 47.76C681.426 47.3773 681.608 46.8687 681.608 46.234C681.608 45.5993 681.426 45.0953 681.062 44.722C680.707 44.3393 680.25 44.148 679.69 44.148C679.13 44.148 678.668 44.3393 678.304 44.722C677.94 45.0953 677.758 45.5993 677.758 46.234C677.758 46.8687 677.94 47.3773 678.304 47.76C678.668 48.1333 679.13 48.32 679.69 48.32ZM689.731 42.356C690.431 42.356 691.066 42.5193 691.635 42.846C692.214 43.1633 692.667 43.616 692.993 44.204C693.32 44.7827 693.483 45.4593 693.483 46.234C693.483 47.0087 693.32 47.69 692.993 48.278C692.667 48.8567 692.214 49.3093 691.635 49.636C691.066 49.9533 690.431 50.112 689.731 50.112C688.695 50.112 687.907 49.7853 687.365 49.132V50H685.279V39.612H687.463V43.266C688.014 42.6593 688.77 42.356 689.731 42.356ZM689.353 48.32C689.913 48.32 690.371 48.1333 690.725 47.76C691.089 47.3773 691.271 46.8687 691.271 46.234C691.271 45.5993 691.089 45.0953 690.725 44.722C690.371 44.3393 689.913 44.148 689.353 44.148C688.793 44.148 688.331 44.3393 687.967 44.722C687.613 45.0953 687.435 45.5993 687.435 46.234C687.435 46.8687 687.613 47.3773 687.967 47.76C688.331 48.1333 688.793 48.32 689.353 48.32ZM698.53 50.112C697.736 50.112 697.022 49.9487 696.388 49.622C695.762 49.286 695.272 48.824 694.918 48.236C694.563 47.648 694.386 46.9807 694.386 46.234C694.386 45.4873 694.563 44.82 694.918 44.232C695.272 43.644 695.762 43.1867 696.388 42.86C697.022 42.524 697.736 42.356 698.53 42.356C699.323 42.356 700.032 42.524 700.658 42.86C701.283 43.1867 701.773 43.644 702.128 44.232C702.482 44.82 702.66 45.4873 702.66 46.234C702.66 46.9807 702.482 47.648 702.128 48.236C701.773 48.824 701.283 49.286 700.658 49.622C700.032 49.9487 699.323 50.112 698.53 50.112ZM698.53 48.32C699.09 48.32 699.547 48.1333 699.902 47.76C700.266 47.3773 700.448 46.8687 700.448 46.234C700.448 45.5993 700.266 45.0953 699.902 44.722C699.547 44.3393 699.09 44.148 698.53 44.148C697.97 44.148 697.508 44.3393 697.144 44.722C696.78 45.0953 696.598 45.5993 696.598 46.234C696.598 46.8687 696.78 47.3773 697.144 47.76C697.508 48.1333 697.97 48.32 698.53 48.32ZM707.703 50.112C706.91 50.112 706.196 49.9487 705.561 49.622C704.936 49.286 704.446 48.824 704.091 48.236C703.737 47.648 703.559 46.9807 703.559 46.234C703.559 45.4873 703.737 44.82 704.091 44.232C704.446 43.644 704.936 43.1867 705.561 42.86C706.196 42.524 706.91 42.356 707.703 42.356C708.497 42.356 709.206 42.524 709.831 42.86C710.457 43.1867 710.947 43.644 711.301 44.232C711.656 44.82 711.833 45.4873 711.833 46.234C711.833 46.9807 711.656 47.648 711.301 48.236C710.947 48.824 710.457 49.286 709.831 49.622C709.206 49.9487 708.497 50.112 707.703 50.112ZM707.703 48.32C708.263 48.32 708.721 48.1333 709.075 47.76C709.439 47.3773 709.621 46.8687 709.621 46.234C709.621 45.5993 709.439 45.0953 709.075 44.722C708.721 44.3393 708.263 44.148 707.703 44.148C707.143 44.148 706.681 44.3393 706.317 44.722C705.953 45.0953 705.771 45.5993 705.771 46.234C705.771 46.8687 705.953 47.3773 706.317 47.76C706.681 48.1333 707.143 48.32 707.703 48.32ZM716.527 47.046L715.477 48.082V50H713.293V39.612H715.477V45.492L718.669 42.468H721.273L718.137 45.66L721.553 50H718.907L716.527 47.046ZM724.823 50.112C724.198 50.112 723.587 50.0373 722.989 49.888C722.392 49.7293 721.916 49.5333 721.561 49.3L722.289 47.732C722.625 47.9467 723.031 48.124 723.507 48.264C723.983 48.3947 724.45 48.46 724.907 48.46C725.831 48.46 726.293 48.2313 726.293 47.774C726.293 47.5593 726.167 47.4053 725.915 47.312C725.663 47.2187 725.276 47.1393 724.753 47.074C724.137 46.9807 723.629 46.8733 723.227 46.752C722.826 46.6307 722.476 46.416 722.177 46.108C721.888 45.8 721.743 45.3613 721.743 44.792C721.743 44.316 721.879 43.896 722.149 43.532C722.429 43.1587 722.831 42.8693 723.353 42.664C723.885 42.4587 724.511 42.356 725.229 42.356C725.761 42.356 726.289 42.4167 726.811 42.538C727.343 42.65 727.782 42.8087 728.127 43.014L727.399 44.568C726.737 44.1947 726.013 44.008 725.229 44.008C724.763 44.008 724.413 44.0733 724.179 44.204C723.946 44.3347 723.829 44.5027 723.829 44.708C723.829 44.9413 723.955 45.1047 724.207 45.198C724.459 45.2913 724.861 45.38 725.411 45.464C726.027 45.5667 726.531 45.6787 726.923 45.8C727.315 45.912 727.656 46.122 727.945 46.43C728.235 46.738 728.379 47.1673 728.379 47.718C728.379 48.1847 728.239 48.6 727.959 48.964C727.679 49.328 727.269 49.6127 726.727 49.818C726.195 50.014 725.561 50.112 724.823 50.112Z" fill="#241400"/>
<path d="M354.75 48.18V50H347.162V40.2H354.568V42.02H349.416V44.148H353.966V45.912H349.416V48.18H354.75ZM356.401 39.612H358.585V50H356.401V39.612ZM367.99 46.262C367.99 46.29 367.976 46.486 367.948 46.85H362.25C362.352 47.3167 362.595 47.6853 362.978 47.956C363.36 48.2267 363.836 48.362 364.406 48.362C364.798 48.362 365.143 48.306 365.442 48.194C365.75 48.0727 366.034 47.886 366.296 47.634L367.458 48.894C366.748 49.706 365.712 50.112 364.35 50.112C363.5 50.112 362.749 49.9487 362.096 49.622C361.442 49.286 360.938 48.824 360.584 48.236C360.229 47.648 360.052 46.9807 360.052 46.234C360.052 45.4967 360.224 44.834 360.57 44.246C360.924 43.6487 361.405 43.1867 362.012 42.86C362.628 42.524 363.314 42.356 364.07 42.356C364.807 42.356 365.474 42.5147 366.072 42.832C366.669 43.1493 367.136 43.6067 367.472 44.204C367.817 44.792 367.99 45.478 367.99 46.262ZM364.084 44.008C363.589 44.008 363.174 44.148 362.838 44.428C362.502 44.708 362.296 45.0907 362.222 45.576H365.932C365.857 45.1 365.652 44.722 365.316 44.442C364.98 44.1527 364.569 44.008 364.084 44.008ZM373.084 50.112C372.281 50.112 371.558 49.9487 370.914 49.622C370.279 49.286 369.78 48.824 369.416 48.236C369.061 47.648 368.884 46.9807 368.884 46.234C368.884 45.4873 369.061 44.82 369.416 44.232C369.78 43.644 370.279 43.1867 370.914 42.86C371.558 42.524 372.281 42.356 373.084 42.356C373.877 42.356 374.568 42.524 375.156 42.86C375.753 43.1867 376.187 43.658 376.458 44.274L374.764 45.184C374.372 44.4933 373.807 44.148 373.07 44.148C372.5 44.148 372.029 44.3347 371.656 44.708C371.282 45.0813 371.096 45.59 371.096 46.234C371.096 46.878 371.282 47.3867 371.656 47.76C372.029 48.1333 372.5 48.32 373.07 48.32C373.816 48.32 374.381 47.9747 374.764 47.284L376.458 48.208C376.187 48.8053 375.753 49.272 375.156 49.608C374.568 49.944 373.877 50.112 373.084 50.112ZM382.682 49.636C382.468 49.7947 382.202 49.916 381.884 50C381.576 50.0747 381.25 50.112 380.904 50.112C380.008 50.112 379.313 49.8833 378.818 49.426C378.333 48.9687 378.09 48.2967 378.09 47.41V44.316H376.928V42.636H378.09V40.802H380.274V42.636H382.15V44.316H380.274V47.382C380.274 47.6993 380.354 47.9467 380.512 48.124C380.68 48.292 380.914 48.376 381.212 48.376C381.558 48.376 381.852 48.2827 382.094 48.096L382.682 49.636ZM385.994 43.462C386.256 43.098 386.606 42.8227 387.044 42.636C387.492 42.4493 388.006 42.356 388.584 42.356V44.372C388.342 44.3533 388.178 44.344 388.094 44.344C387.469 44.344 386.979 44.5213 386.624 44.876C386.27 45.2213 386.092 45.744 386.092 46.444V50H383.908V42.468H385.994V43.462ZM393.399 50.112C392.605 50.112 391.891 49.9487 391.257 49.622C390.631 49.286 390.141 48.824 389.787 48.236C389.432 47.648 389.255 46.9807 389.255 46.234C389.255 45.4873 389.432 44.82 389.787 44.232C390.141 43.644 390.631 43.1867 391.257 42.86C391.891 42.524 392.605 42.356 393.399 42.356C394.192 42.356 394.901 42.524 395.527 42.86C396.152 43.1867 396.642 43.644 396.997 44.232C397.351 44.82 397.529 45.4873 397.529 46.234C397.529 46.9807 397.351 47.648 396.997 48.236C396.642 48.824 396.152 49.286 395.527 49.622C394.901 49.9487 394.192 50.112 393.399 50.112ZM393.399 48.32C393.959 48.32 394.416 48.1333 394.771 47.76C395.135 47.3773 395.317 46.8687 395.317 46.234C395.317 45.5993 395.135 45.0953 394.771 44.722C394.416 44.3393 393.959 44.148 393.399 44.148C392.839 44.148 392.377 44.3393 392.013 44.722C391.649 45.0953 391.467 45.5993 391.467 46.234C391.467 46.8687 391.649 47.3773 392.013 47.76C392.377 48.1333 392.839 48.32 393.399 48.32ZM403.566 42.356C404.5 42.356 405.251 42.636 405.82 43.196C406.399 43.756 406.688 44.5867 406.688 45.688V50H404.504V46.024C404.504 45.4267 404.374 44.9833 404.112 44.694C403.851 44.3953 403.473 44.246 402.978 44.246C402.428 44.246 401.989 44.4187 401.662 44.764C401.336 45.1 401.172 45.604 401.172 46.276V50H398.988V42.468H401.074V43.35C401.364 43.0327 401.723 42.79 402.152 42.622C402.582 42.4447 403.053 42.356 403.566 42.356ZM408.668 42.468H410.852V50H408.668V42.468ZM409.76 41.418C409.359 41.418 409.032 41.3013 408.78 41.068C408.528 40.8347 408.402 40.5453 408.402 40.2C408.402 39.8547 408.528 39.5653 408.78 39.332C409.032 39.0987 409.359 38.982 409.76 38.982C410.161 38.982 410.488 39.094 410.74 39.318C410.992 39.542 411.118 39.822 411.118 40.158C411.118 40.522 410.992 40.8253 410.74 41.068C410.488 41.3013 410.161 41.418 409.76 41.418ZM416.519 50.112C415.716 50.112 414.993 49.9487 414.349 49.622C413.714 49.286 413.215 48.824 412.851 48.236C412.496 47.648 412.319 46.9807 412.319 46.234C412.319 45.4873 412.496 44.82 412.851 44.232C413.215 43.644 413.714 43.1867 414.349 42.86C414.993 42.524 415.716 42.356 416.519 42.356C417.312 42.356 418.003 42.524 418.591 42.86C419.188 43.1867 419.622 43.658 419.893 44.274L418.199 45.184C417.807 44.4933 417.242 44.148 416.505 44.148C415.936 44.148 415.464 44.3347 415.091 44.708C414.718 45.0813 414.531 45.59 414.531 46.234C414.531 46.878 414.718 47.3867 415.091 47.76C415.464 48.1333 415.936 48.32 416.505 48.32C417.252 48.32 417.816 47.9747 418.199 47.284L419.893 48.208C419.622 48.8053 419.188 49.272 418.591 49.608C418.003 49.944 417.312 50.112 416.519 50.112ZM429.567 42.356C430.267 42.356 430.902 42.5193 431.471 42.846C432.05 43.1633 432.503 43.616 432.829 44.204C433.156 44.7827 433.319 45.4593 433.319 46.234C433.319 47.0087 433.156 47.69 432.829 48.278C432.503 48.8567 432.05 49.3093 431.471 49.636C430.902 49.9533 430.267 50.112 429.567 50.112C428.531 50.112 427.743 49.7853 427.201 49.132V50H425.115V39.612H427.299V43.266C427.85 42.6593 428.606 42.356 429.567 42.356ZM429.189 48.32C429.749 48.32 430.207 48.1333 430.561 47.76C430.925 47.3773 431.107 46.8687 431.107 46.234C431.107 45.5993 430.925 45.0953 430.561 44.722C430.207 44.3393 429.749 44.148 429.189 44.148C428.629 44.148 428.167 44.3393 427.803 44.722C427.449 45.0953 427.271 45.5993 427.271 46.234C427.271 46.8687 427.449 47.3773 427.803 47.76C428.167 48.1333 428.629 48.32 429.189 48.32ZM438.365 50.112C437.572 50.112 436.858 49.9487 436.223 49.622C435.598 49.286 435.108 48.824 434.753 48.236C434.399 47.648 434.221 46.9807 434.221 46.234C434.221 45.4873 434.399 44.82 434.753 44.232C435.108 43.644 435.598 43.1867 436.223 42.86C436.858 42.524 437.572 42.356 438.365 42.356C439.159 42.356 439.868 42.524 440.493 42.86C441.119 43.1867 441.609 43.644 441.963 44.232C442.318 44.82 442.495 45.4873 442.495 46.234C442.495 46.9807 442.318 47.648 441.963 48.236C441.609 48.824 441.119 49.286 440.493 49.622C439.868 49.9487 439.159 50.112 438.365 50.112ZM438.365 48.32C438.925 48.32 439.383 48.1333 439.737 47.76C440.101 47.3773 440.283 46.8687 440.283 46.234C440.283 45.5993 440.101 45.0953 439.737 44.722C439.383 44.3393 438.925 44.148 438.365 44.148C437.805 44.148 437.343 44.3393 436.979 44.722C436.615 45.0953 436.433 45.5993 436.433 46.234C436.433 46.8687 436.615 47.3773 436.979 47.76C437.343 48.1333 437.805 48.32 438.365 48.32ZM447.539 50.112C446.746 50.112 446.032 49.9487 445.397 49.622C444.772 49.286 444.282 48.824 443.927 48.236C443.573 47.648 443.395 46.9807 443.395 46.234C443.395 45.4873 443.573 44.82 443.927 44.232C444.282 43.644 444.772 43.1867 445.397 42.86C446.032 42.524 446.746 42.356 447.539 42.356C448.333 42.356 449.042 42.524 449.667 42.86C450.293 43.1867 450.783 43.644 451.137 44.232C451.492 44.82 451.669 45.4873 451.669 46.234C451.669 46.9807 451.492 47.648 451.137 48.236C450.783 48.824 450.293 49.286 449.667 49.622C449.042 49.9487 448.333 50.112 447.539 50.112ZM447.539 48.32C448.099 48.32 448.557 48.1333 448.911 47.76C449.275 47.3773 449.457 46.8687 449.457 46.234C449.457 45.5993 449.275 45.0953 448.911 44.722C448.557 44.3393 448.099 44.148 447.539 44.148C446.979 44.148 446.517 44.3393 446.153 44.722C445.789 45.0953 445.607 45.5993 445.607 46.234C445.607 46.8687 445.789 47.3773 446.153 47.76C446.517 48.1333 446.979 48.32 447.539 48.32ZM456.363 47.046L455.313 48.082V50H453.129V39.612H455.313V45.492L458.505 42.468H461.109L457.973 45.66L461.389 50H458.743L456.363 47.046ZM464.659 50.112C464.034 50.112 463.423 50.0373 462.825 49.888C462.228 49.7293 461.752 49.5333 461.397 49.3L462.125 47.732C462.461 47.9467 462.867 48.124 463.343 48.264C463.819 48.3947 464.286 48.46 464.743 48.46C465.667 48.46 466.129 48.2313 466.129 47.774C466.129 47.5593 466.003 47.4053 465.751 47.312C465.499 47.2187 465.112 47.1393 464.589 47.074C463.973 46.9807 463.465 46.8733 463.063 46.752C462.662 46.6307 462.312 46.416 462.013 46.108C461.724 45.8 461.579 45.3613 461.579 44.792C461.579 44.316 461.715 43.896 461.985 43.532C462.265 43.1587 462.667 42.8693 463.189 42.664C463.721 42.4587 464.347 42.356 465.065 42.356C465.597 42.356 466.125 42.4167 466.647 42.538C467.179 42.65 467.618 42.8087 467.963 43.014L467.235 44.568C466.573 44.1947 465.849 44.008 465.065 44.008C464.599 44.008 464.249 44.0733 464.015 44.204C463.782 44.3347 463.665 44.5027 463.665 44.708C463.665 44.9413 463.791 45.1047 464.043 45.198C464.295 45.2913 464.697 45.38 465.247 45.464C465.863 45.5667 466.367 45.6787 466.759 45.8C467.151 45.912 467.492 46.122 467.781 46.43C468.071 46.738 468.215 47.1673 468.215 47.718C468.215 48.1847 468.075 48.6 467.795 48.964C467.515 49.328 467.105 49.6127 466.563 49.818C466.031 50.014 465.397 50.112 464.659 50.112Z" fill="#241400"/>
<path d="M116.358 44.904C116.918 45.0813 117.357 45.38 117.674 45.8C117.991 46.2107 118.15 46.7193 118.15 47.326C118.15 48.1847 117.814 48.8473 117.142 49.314C116.479 49.7713 115.509 50 114.23 50H109.162V40.2H113.95C115.145 40.2 116.059 40.4287 116.694 40.886C117.338 41.3433 117.66 41.964 117.66 42.748C117.66 43.224 117.543 43.6487 117.31 44.022C117.086 44.3953 116.769 44.6893 116.358 44.904ZM111.416 41.908V44.218H113.67C114.23 44.218 114.655 44.12 114.944 43.924C115.233 43.728 115.378 43.4387 115.378 43.056C115.378 42.6733 115.233 42.3887 114.944 42.202C114.655 42.006 114.23 41.908 113.67 41.908H111.416ZM114.062 48.292C114.659 48.292 115.107 48.194 115.406 47.998C115.714 47.802 115.868 47.4987 115.868 47.088C115.868 46.276 115.266 45.87 114.062 45.87H111.416V48.292H114.062ZM123.297 50.112C122.504 50.112 121.79 49.9487 121.155 49.622C120.53 49.286 120.04 48.824 119.685 48.236C119.33 47.648 119.153 46.9807 119.153 46.234C119.153 45.4873 119.33 44.82 119.685 44.232C120.04 43.644 120.53 43.1867 121.155 42.86C121.79 42.524 122.504 42.356 123.297 42.356C124.09 42.356 124.8 42.524 125.425 42.86C126.05 43.1867 126.54 43.644 126.895 44.232C127.25 44.82 127.427 45.4873 127.427 46.234C127.427 46.9807 127.25 47.648 126.895 48.236C126.54 48.824 126.05 49.286 125.425 49.622C124.8 49.9487 124.09 50.112 123.297 50.112ZM123.297 48.32C123.857 48.32 124.314 48.1333 124.669 47.76C125.033 47.3773 125.215 46.8687 125.215 46.234C125.215 45.5993 125.033 45.0953 124.669 44.722C124.314 44.3393 123.857 44.148 123.297 44.148C122.737 44.148 122.275 44.3393 121.911 44.722C121.547 45.0953 121.365 45.5993 121.365 46.234C121.365 46.8687 121.547 47.3773 121.911 47.76C122.275 48.1333 122.737 48.32 123.297 48.32ZM132.471 50.112C131.678 50.112 130.964 49.9487 130.329 49.622C129.704 49.286 129.214 48.824 128.859 48.236C128.504 47.648 128.327 46.9807 128.327 46.234C128.327 45.4873 128.504 44.82 128.859 44.232C129.214 43.644 129.704 43.1867 130.329 42.86C130.964 42.524 131.678 42.356 132.471 42.356C133.264 42.356 133.974 42.524 134.599 42.86C135.224 43.1867 135.714 43.644 136.069 44.232C136.424 44.82 136.601 45.4873 136.601 46.234C136.601 46.9807 136.424 47.648 136.069 48.236C135.714 48.824 135.224 49.286 134.599 49.622C133.974 49.9487 133.264 50.112 132.471 50.112ZM132.471 48.32C133.031 48.32 133.488 48.1333 133.843 47.76C134.207 47.3773 134.389 46.8687 134.389 46.234C134.389 45.5993 134.207 45.0953 133.843 44.722C133.488 44.3393 133.031 44.148 132.471 44.148C131.911 44.148 131.449 44.3393 131.085 44.722C130.721 45.0953 130.539 45.5993 130.539 46.234C130.539 46.8687 130.721 47.3773 131.085 47.76C131.449 48.1333 131.911 48.32 132.471 48.32ZM141.295 47.046L140.245 48.082V50H138.061V39.612H140.245V45.492L143.437 42.468H146.041L142.905 45.66L146.321 50H143.675L141.295 47.046ZM149.591 50.112C148.965 50.112 148.354 50.0373 147.757 49.888C147.159 49.7293 146.683 49.5333 146.329 49.3L147.057 47.732C147.393 47.9467 147.799 48.124 148.275 48.264C148.751 48.3947 149.217 48.46 149.675 48.46C150.599 48.46 151.061 48.2313 151.061 47.774C151.061 47.5593 150.935 47.4053 150.683 47.312C150.431 47.2187 150.043 47.1393 149.521 47.074C148.905 46.9807 148.396 46.8733 147.995 46.752C147.593 46.6307 147.243 46.416 146.945 46.108C146.655 45.8 146.511 45.3613 146.511 44.792C146.511 44.316 146.646 43.896 146.917 43.532C147.197 43.1587 147.598 42.8693 148.121 42.664C148.653 42.4587 149.278 42.356 149.997 42.356C150.529 42.356 151.056 42.4167 151.579 42.538C152.111 42.65 152.549 42.8087 152.895 43.014L152.167 44.568C151.504 44.1947 150.781 44.008 149.997 44.008C149.53 44.008 149.18 44.0733 148.947 44.204C148.713 44.3347 148.597 44.5027 148.597 44.708C148.597 44.9413 148.723 45.1047 148.975 45.198C149.227 45.2913 149.628 45.38 150.179 45.464C150.795 45.5667 151.299 45.6787 151.691 45.8C152.083 45.912 152.423 46.122 152.713 46.43C153.002 46.738 153.147 47.1673 153.147 47.718C153.147 48.1847 153.007 48.6 152.727 48.964C152.447 49.328 152.036 49.6127 151.495 49.818C150.963 50.014 150.328 50.112 149.591 50.112Z" fill="#241400"/>
<path d="M73.192 155.048H70.056V153.2H78.596V155.048H75.46V163H73.192V155.048ZM82.4807 163.112C81.6873 163.112 80.9733 162.949 80.3387 162.622C79.7133 162.286 79.2233 161.824 78.8687 161.236C78.514 160.648 78.3367 159.981 78.3367 159.234C78.3367 158.487 78.514 157.82 78.8687 157.232C79.2233 156.644 79.7133 156.187 80.3387 155.86C80.9733 155.524 81.6873 155.356 82.4807 155.356C83.274 155.356 83.9833 155.524 84.6087 155.86C85.234 156.187 85.724 156.644 86.0787 157.232C86.4333 157.82 86.6107 158.487 86.6107 159.234C86.6107 159.981 86.4333 160.648 86.0787 161.236C85.724 161.824 85.234 162.286 84.6087 162.622C83.9833 162.949 83.274 163.112 82.4807 163.112ZM82.4807 161.32C83.0407 161.32 83.498 161.133 83.8527 160.76C84.2167 160.377 84.3987 159.869 84.3987 159.234C84.3987 158.599 84.2167 158.095 83.8527 157.722C83.498 157.339 83.0407 157.148 82.4807 157.148C81.9207 157.148 81.4587 157.339 81.0947 157.722C80.7307 158.095 80.5487 158.599 80.5487 159.234C80.5487 159.869 80.7307 160.377 81.0947 160.76C81.4587 161.133 81.9207 161.32 82.4807 161.32ZM95.3414 155.468L91.9394 163.462C91.5941 164.33 91.1648 164.941 90.6514 165.296C90.1474 165.651 89.5361 165.828 88.8174 165.828C88.4254 165.828 88.0381 165.767 87.6554 165.646C87.2728 165.525 86.9601 165.357 86.7174 165.142L87.5154 163.588C87.6834 163.737 87.8748 163.854 88.0894 163.938C88.3134 164.022 88.5328 164.064 88.7474 164.064C89.0461 164.064 89.2888 163.989 89.4754 163.84C89.6621 163.7 89.8301 163.462 89.9794 163.126L90.0074 163.056L86.7454 155.468H88.9994L91.1134 160.578L93.2414 155.468H95.3414ZM98.6572 163.112C98.0319 163.112 97.4206 163.037 96.8232 162.888C96.2259 162.729 95.7499 162.533 95.3952 162.3L96.1232 160.732C96.4592 160.947 96.8652 161.124 97.3412 161.264C97.8172 161.395 98.2839 161.46 98.7412 161.46C99.6652 161.46 100.127 161.231 100.127 160.774C100.127 160.559 100.001 160.405 99.7492 160.312C99.4972 160.219 99.1099 160.139 98.5872 160.074C97.9712 159.981 97.4626 159.873 97.0612 159.752C96.6599 159.631 96.3099 159.416 96.0112 159.108C95.7219 158.8 95.5772 158.361 95.5772 157.792C95.5772 157.316 95.7126 156.896 95.9832 156.532C96.2632 156.159 96.6646 155.869 97.1872 155.664C97.7192 155.459 98.3446 155.356 99.0632 155.356C99.5952 155.356 100.123 155.417 100.645 155.538C101.177 155.65 101.616 155.809 101.961 156.014L101.233 157.568C100.571 157.195 99.8472 157.008 99.0632 157.008C98.5966 157.008 98.2466 157.073 98.0132 157.204C97.7799 157.335 97.6632 157.503 97.6632 157.708C97.6632 157.941 97.7892 158.105 98.0412 158.198C98.2932 158.291 98.6946 158.38 99.2452 158.464C99.8612 158.567 100.365 158.679 100.757 158.8C101.149 158.912 101.49 159.122 101.779 159.43C102.069 159.738 102.213 160.167 102.213 160.718C102.213 161.185 102.073 161.6 101.793 161.964C101.513 162.328 101.103 162.613 100.561 162.818C100.029 163.014 99.3946 163.112 98.6572 163.112ZM104.401 160.396C104.793 160.396 105.115 160.522 105.367 160.774C105.619 161.017 105.745 161.339 105.745 161.74C105.745 161.927 105.721 162.113 105.675 162.3C105.628 162.487 105.525 162.767 105.367 163.14L104.569 165.156H103.183L103.799 162.93C103.565 162.837 103.379 162.687 103.239 162.482C103.108 162.267 103.043 162.02 103.043 161.74C103.043 161.339 103.169 161.017 103.421 160.774C103.682 160.522 104.009 160.396 104.401 160.396ZM114.83 163.112C114.027 163.112 113.304 162.949 112.66 162.622C112.025 162.286 111.526 161.824 111.162 161.236C110.807 160.648 110.63 159.981 110.63 159.234C110.63 158.487 110.807 157.82 111.162 157.232C111.526 156.644 112.025 156.187 112.66 155.86C113.304 155.524 114.027 155.356 114.83 155.356C115.623 155.356 116.314 155.524 116.902 155.86C117.499 156.187 117.933 156.658 118.204 157.274L116.51 158.184C116.118 157.493 115.553 157.148 114.816 157.148C114.246 157.148 113.775 157.335 113.402 157.708C113.028 158.081 112.842 158.59 112.842 159.234C112.842 159.878 113.028 160.387 113.402 160.76C113.775 161.133 114.246 161.32 114.816 161.32C115.562 161.32 116.127 160.975 116.51 160.284L118.204 161.208C117.933 161.805 117.499 162.272 116.902 162.608C116.314 162.944 115.623 163.112 114.83 163.112ZM121.547 156.462C121.808 156.098 122.158 155.823 122.597 155.636C123.045 155.449 123.558 155.356 124.137 155.356V157.372C123.894 157.353 123.731 157.344 123.647 157.344C123.022 157.344 122.532 157.521 122.177 157.876C121.822 158.221 121.645 158.744 121.645 159.444V163H119.461V155.468H121.547V156.462ZM132.745 159.262C132.745 159.29 132.731 159.486 132.703 159.85H127.005C127.108 160.317 127.351 160.685 127.733 160.956C128.116 161.227 128.592 161.362 129.161 161.362C129.553 161.362 129.899 161.306 130.197 161.194C130.505 161.073 130.79 160.886 131.051 160.634L132.213 161.894C131.504 162.706 130.468 163.112 129.105 163.112C128.256 163.112 127.505 162.949 126.851 162.622C126.198 162.286 125.694 161.824 125.339 161.236C124.985 160.648 124.807 159.981 124.807 159.234C124.807 158.497 124.98 157.834 125.325 157.246C125.68 156.649 126.161 156.187 126.767 155.86C127.383 155.524 128.069 155.356 128.825 155.356C129.563 155.356 130.23 155.515 130.827 155.832C131.425 156.149 131.891 156.607 132.227 157.204C132.573 157.792 132.745 158.478 132.745 159.262ZM128.839 157.008C128.345 157.008 127.929 157.148 127.593 157.428C127.257 157.708 127.052 158.091 126.977 158.576H130.687C130.613 158.1 130.407 157.722 130.071 157.442C129.735 157.153 129.325 157.008 128.839 157.008ZM137.032 155.356C138.199 155.356 139.095 155.636 139.72 156.196C140.346 156.747 140.658 157.582 140.658 158.702V163H138.614V162.062C138.204 162.762 137.438 163.112 136.318 163.112C135.74 163.112 135.236 163.014 134.806 162.818C134.386 162.622 134.064 162.351 133.84 162.006C133.616 161.661 133.504 161.269 133.504 160.83C133.504 160.13 133.766 159.579 134.288 159.178C134.82 158.777 135.637 158.576 136.738 158.576H138.474C138.474 158.1 138.33 157.736 138.04 157.484C137.751 157.223 137.317 157.092 136.738 157.092C136.337 157.092 135.94 157.157 135.548 157.288C135.166 157.409 134.839 157.577 134.568 157.792L133.784 156.266C134.195 155.977 134.685 155.753 135.254 155.594C135.833 155.435 136.426 155.356 137.032 155.356ZM136.864 161.642C137.238 161.642 137.569 161.558 137.858 161.39C138.148 161.213 138.353 160.956 138.474 160.62V159.85H136.976C136.08 159.85 135.632 160.144 135.632 160.732C135.632 161.012 135.74 161.236 135.954 161.404C136.178 161.563 136.482 161.642 136.864 161.642ZM147.493 162.636C147.278 162.795 147.012 162.916 146.695 163C146.387 163.075 146.06 163.112 145.715 163.112C144.819 163.112 144.124 162.883 143.629 162.426C143.144 161.969 142.901 161.297 142.901 160.41V157.316H141.739V155.636H142.901V153.802H145.085V155.636H146.961V157.316H145.085V160.382C145.085 160.699 145.164 160.947 145.323 161.124C145.491 161.292 145.724 161.376 146.023 161.376C146.368 161.376 146.662 161.283 146.905 161.096L147.493 162.636ZM148.719 155.468H150.903V163H148.719V155.468ZM149.811 154.418C149.41 154.418 149.083 154.301 148.831 154.068C148.579 153.835 148.453 153.545 148.453 153.2C148.453 152.855 148.579 152.565 148.831 152.332C149.083 152.099 149.41 151.982 149.811 151.982C150.212 151.982 150.539 152.094 150.791 152.318C151.043 152.542 151.169 152.822 151.169 153.158C151.169 153.522 151.043 153.825 150.791 154.068C150.539 154.301 150.212 154.418 149.811 154.418ZM160.406 155.468L157.228 163H154.974L151.81 155.468H154.064L156.15 160.592L158.306 155.468H160.406ZM161.297 155.468H163.481V163H161.297V155.468ZM162.389 154.418C161.988 154.418 161.661 154.301 161.409 154.068C161.157 153.835 161.031 153.545 161.031 153.2C161.031 152.855 161.157 152.565 161.409 152.332C161.661 152.099 161.988 151.982 162.389 151.982C162.79 151.982 163.117 152.094 163.369 152.318C163.621 152.542 163.747 152.822 163.747 153.158C163.747 153.522 163.621 153.825 163.369 154.068C163.117 154.301 162.79 154.418 162.389 154.418ZM170.366 162.636C170.151 162.795 169.885 162.916 169.568 163C169.26 163.075 168.933 163.112 168.588 163.112C167.692 163.112 166.997 162.883 166.502 162.426C166.017 161.969 165.774 161.297 165.774 160.41V157.316H164.612V155.636H165.774V153.802H167.958V155.636H169.834V157.316H167.958V160.382C167.958 160.699 168.037 160.947 168.196 161.124C168.364 161.292 168.597 161.376 168.896 161.376C169.241 161.376 169.535 161.283 169.778 161.096L170.366 162.636ZM178.931 155.468L175.529 163.462C175.184 164.33 174.755 164.941 174.241 165.296C173.737 165.651 173.126 165.828 172.407 165.828C172.015 165.828 171.628 165.767 171.245 165.646C170.863 165.525 170.55 165.357 170.307 165.142L171.105 163.588C171.273 163.737 171.465 163.854 171.679 163.938C171.903 164.022 172.123 164.064 172.337 164.064C172.636 164.064 172.879 163.989 173.065 163.84C173.252 163.7 173.42 163.462 173.569 163.126L173.597 163.056L170.335 155.468H172.589L174.703 160.578L176.831 155.468H178.931Z" fill="#241400"/>
<path d="M351.358 157.904C351.918 158.081 352.357 158.38 352.674 158.8C352.991 159.211 353.15 159.719 353.15 160.326C353.15 161.185 352.814 161.847 352.142 162.314C351.479 162.771 350.509 163 349.23 163H344.162V153.2H348.95C350.145 153.2 351.059 153.429 351.694 153.886C352.338 154.343 352.66 154.964 352.66 155.748C352.66 156.224 352.543 156.649 352.31 157.022C352.086 157.395 351.769 157.689 351.358 157.904ZM346.416 154.908V157.218H348.67C349.23 157.218 349.655 157.12 349.944 156.924C350.233 156.728 350.378 156.439 350.378 156.056C350.378 155.673 350.233 155.389 349.944 155.202C349.655 155.006 349.23 154.908 348.67 154.908H346.416ZM349.062 161.292C349.659 161.292 350.107 161.194 350.406 160.998C350.714 160.802 350.868 160.499 350.868 160.088C350.868 159.276 350.266 158.87 349.062 158.87H346.416V161.292H349.062ZM358.297 163.112C357.504 163.112 356.79 162.949 356.155 162.622C355.53 162.286 355.04 161.824 354.685 161.236C354.33 160.648 354.153 159.981 354.153 159.234C354.153 158.487 354.33 157.82 354.685 157.232C355.04 156.644 355.53 156.187 356.155 155.86C356.79 155.524 357.504 155.356 358.297 155.356C359.09 155.356 359.8 155.524 360.425 155.86C361.05 156.187 361.54 156.644 361.895 157.232C362.25 157.82 362.427 158.487 362.427 159.234C362.427 159.981 362.25 160.648 361.895 161.236C361.54 161.824 361.05 162.286 360.425 162.622C359.8 162.949 359.09 163.112 358.297 163.112ZM358.297 161.32C358.857 161.32 359.314 161.133 359.669 160.76C360.033 160.377 360.215 159.869 360.215 159.234C360.215 158.599 360.033 158.095 359.669 157.722C359.314 157.339 358.857 157.148 358.297 157.148C357.737 157.148 357.275 157.339 356.911 157.722C356.547 158.095 356.365 158.599 356.365 159.234C356.365 159.869 356.547 160.377 356.911 160.76C357.275 161.133 357.737 161.32 358.297 161.32ZM367.471 163.112C366.678 163.112 365.964 162.949 365.329 162.622C364.704 162.286 364.214 161.824 363.859 161.236C363.504 160.648 363.327 159.981 363.327 159.234C363.327 158.487 363.504 157.82 363.859 157.232C364.214 156.644 364.704 156.187 365.329 155.86C365.964 155.524 366.678 155.356 367.471 155.356C368.264 155.356 368.974 155.524 369.599 155.86C370.224 156.187 370.714 156.644 371.069 157.232C371.424 157.82 371.601 158.487 371.601 159.234C371.601 159.981 371.424 160.648 371.069 161.236C370.714 161.824 370.224 162.286 369.599 162.622C368.974 162.949 368.264 163.112 367.471 163.112ZM367.471 161.32C368.031 161.32 368.488 161.133 368.843 160.76C369.207 160.377 369.389 159.869 369.389 159.234C369.389 158.599 369.207 158.095 368.843 157.722C368.488 157.339 368.031 157.148 367.471 157.148C366.911 157.148 366.449 157.339 366.085 157.722C365.721 158.095 365.539 158.599 365.539 159.234C365.539 159.869 365.721 160.377 366.085 160.76C366.449 161.133 366.911 161.32 367.471 161.32ZM376.295 160.046L375.245 161.082V163H373.061V152.612H375.245V158.492L378.437 155.468H381.041L377.905 158.66L381.321 163H378.675L376.295 160.046ZM389.306 155.356C390.472 155.356 391.368 155.636 391.994 156.196C392.619 156.747 392.932 157.582 392.932 158.702V163H390.888V162.062C390.477 162.762 389.712 163.112 388.592 163.112C388.013 163.112 387.509 163.014 387.08 162.818C386.66 162.622 386.338 162.351 386.114 162.006C385.89 161.661 385.778 161.269 385.778 160.83C385.778 160.13 386.039 159.579 386.562 159.178C387.094 158.777 387.91 158.576 389.012 158.576H390.748C390.748 158.1 390.603 157.736 390.314 157.484C390.024 157.223 389.59 157.092 389.012 157.092C388.61 157.092 388.214 157.157 387.822 157.288C387.439 157.409 387.112 157.577 386.842 157.792L386.058 156.266C386.468 155.977 386.958 155.753 387.528 155.594C388.106 155.435 388.699 155.356 389.306 155.356ZM389.138 161.642C389.511 161.642 389.842 161.558 390.132 161.39C390.421 161.213 390.626 160.956 390.748 160.62V159.85H389.25C388.354 159.85 387.906 160.144 387.906 160.732C387.906 161.012 388.013 161.236 388.228 161.404C388.452 161.563 388.755 161.642 389.138 161.642ZM398.63 163.112C397.828 163.112 397.104 162.949 396.46 162.622C395.826 162.286 395.326 161.824 394.962 161.236C394.608 160.648 394.43 159.981 394.43 159.234C394.43 158.487 394.608 157.82 394.962 157.232C395.326 156.644 395.826 156.187 396.46 155.86C397.104 155.524 397.828 155.356 398.63 155.356C399.424 155.356 400.114 155.524 400.702 155.86C401.3 156.187 401.734 156.658 402.004 157.274L400.31 158.184C399.918 157.493 399.354 157.148 398.616 157.148C398.047 157.148 397.576 157.335 397.202 157.708C396.829 158.081 396.642 158.59 396.642 159.234C396.642 159.878 396.829 160.387 397.202 160.76C397.576 161.133 398.047 161.32 398.616 161.32C399.363 161.32 399.928 160.975 400.31 160.284L402.004 161.208C401.734 161.805 401.3 162.272 400.702 162.608C400.114 162.944 399.424 163.112 398.63 163.112ZM406.806 163.112C406.004 163.112 405.28 162.949 404.636 162.622C404.002 162.286 403.502 161.824 403.138 161.236C402.784 160.648 402.606 159.981 402.606 159.234C402.606 158.487 402.784 157.82 403.138 157.232C403.502 156.644 404.002 156.187 404.636 155.86C405.28 155.524 406.004 155.356 406.806 155.356C407.6 155.356 408.29 155.524 408.878 155.86C409.476 156.187 409.91 156.658 410.18 157.274L408.486 158.184C408.094 157.493 407.53 157.148 406.792 157.148C406.223 157.148 405.752 157.335 405.378 157.708C405.005 158.081 404.818 158.59 404.818 159.234C404.818 159.878 405.005 160.387 405.378 160.76C405.752 161.133 406.223 161.32 406.792 161.32C407.539 161.32 408.104 160.975 408.486 160.284L410.18 161.208C409.91 161.805 409.476 162.272 408.878 162.608C408.29 162.944 407.6 163.112 406.806 163.112ZM418.72 159.262C418.72 159.29 418.706 159.486 418.678 159.85H412.98C413.083 160.317 413.325 160.685 413.708 160.956C414.091 161.227 414.567 161.362 415.136 161.362C415.528 161.362 415.873 161.306 416.172 161.194C416.48 161.073 416.765 160.886 417.026 160.634L418.188 161.894C417.479 162.706 416.443 163.112 415.08 163.112C414.231 163.112 413.479 162.949 412.826 162.622C412.173 162.286 411.669 161.824 411.314 161.236C410.959 160.648 410.782 159.981 410.782 159.234C410.782 158.497 410.955 157.834 411.3 157.246C411.655 156.649 412.135 156.187 412.742 155.86C413.358 155.524 414.044 155.356 414.8 155.356C415.537 155.356 416.205 155.515 416.802 155.832C417.399 156.149 417.866 156.607 418.202 157.204C418.547 157.792 418.72 158.478 418.72 159.262ZM414.814 157.008C414.319 157.008 413.904 157.148 413.568 157.428C413.232 157.708 413.027 158.091 412.952 158.576H416.662C416.587 158.1 416.382 157.722 416.046 157.442C415.71 157.153 415.299 157.008 414.814 157.008ZM422.708 163.112C422.083 163.112 421.471 163.037 420.874 162.888C420.277 162.729 419.801 162.533 419.446 162.3L420.174 160.732C420.51 160.947 420.916 161.124 421.392 161.264C421.868 161.395 422.335 161.46 422.792 161.46C423.716 161.46 424.178 161.231 424.178 160.774C424.178 160.559 424.052 160.405 423.8 160.312C423.548 160.219 423.161 160.139 422.638 160.074C422.022 159.981 421.513 159.873 421.112 159.752C420.711 159.631 420.361 159.416 420.062 159.108C419.773 158.8 419.628 158.361 419.628 157.792C419.628 157.316 419.763 156.896 420.034 156.532C420.314 156.159 420.715 155.869 421.238 155.664C421.77 155.459 422.395 155.356 423.114 155.356C423.646 155.356 424.173 155.417 424.696 155.538C425.228 155.65 425.667 155.809 426.012 156.014L425.284 157.568C424.621 157.195 423.898 157.008 423.114 157.008C422.647 157.008 422.297 157.073 422.064 157.204C421.831 157.335 421.714 157.503 421.714 157.708C421.714 157.941 421.84 158.105 422.092 158.198C422.344 158.291 422.745 158.38 423.296 158.464C423.912 158.567 424.416 158.679 424.808 158.8C425.2 158.912 425.541 159.122 425.83 159.43C426.119 159.738 426.264 160.167 426.264 160.718C426.264 161.185 426.124 161.6 425.844 161.964C425.564 162.328 425.153 162.613 424.612 162.818C424.08 163.014 423.445 163.112 422.708 163.112ZM430.146 163.112C429.52 163.112 428.909 163.037 428.312 162.888C427.714 162.729 427.238 162.533 426.884 162.3L427.612 160.732C427.948 160.947 428.354 161.124 428.83 161.264C429.306 161.395 429.772 161.46 430.23 161.46C431.154 161.46 431.616 161.231 431.616 160.774C431.616 160.559 431.49 160.405 431.238 160.312C430.986 160.219 430.598 160.139 430.076 160.074C429.46 159.981 428.951 159.873 428.55 159.752C428.148 159.631 427.798 159.416 427.5 159.108C427.21 158.8 427.066 158.361 427.066 157.792C427.066 157.316 427.201 156.896 427.472 156.532C427.752 156.159 428.153 155.869 428.676 155.664C429.208 155.459 429.833 155.356 430.552 155.356C431.084 155.356 431.611 155.417 432.134 155.538C432.666 155.65 433.104 155.809 433.45 156.014L432.722 157.568C432.059 157.195 431.336 157.008 430.552 157.008C430.085 157.008 429.735 157.073 429.502 157.204C429.268 157.335 429.152 157.503 429.152 157.708C429.152 157.941 429.278 158.105 429.53 158.198C429.782 158.291 430.183 158.38 430.734 158.464C431.35 158.567 431.854 158.679 432.246 158.8C432.638 158.912 432.978 159.122 433.268 159.43C433.557 159.738 433.702 160.167 433.702 160.718C433.702 161.185 433.562 161.6 433.282 161.964C433.002 162.328 432.591 162.613 432.05 162.818C431.518 163.014 430.883 163.112 430.146 163.112ZM438.633 163.112C437.84 163.112 437.126 162.949 436.491 162.622C435.866 162.286 435.376 161.824 435.021 161.236C434.666 160.648 434.489 159.981 434.489 159.234C434.489 158.487 434.666 157.82 435.021 157.232C435.376 156.644 435.866 156.187 436.491 155.86C437.126 155.524 437.84 155.356 438.633 155.356C439.426 155.356 440.136 155.524 440.761 155.86C441.386 156.187 441.876 156.644 442.231 157.232C442.586 157.82 442.763 158.487 442.763 159.234C442.763 159.981 442.586 160.648 442.231 161.236C441.876 161.824 441.386 162.286 440.761 162.622C440.136 162.949 439.426 163.112 438.633 163.112ZM438.633 161.32C439.193 161.32 439.65 161.133 440.005 160.76C440.369 160.377 440.551 159.869 440.551 159.234C440.551 158.599 440.369 158.095 440.005 157.722C439.65 157.339 439.193 157.148 438.633 157.148C438.073 157.148 437.611 157.339 437.247 157.722C436.883 158.095 436.701 158.599 436.701 159.234C436.701 159.869 436.883 160.377 437.247 160.76C437.611 161.133 438.073 161.32 438.633 161.32ZM446.309 156.462C446.57 156.098 446.92 155.823 447.359 155.636C447.807 155.449 448.32 155.356 448.899 155.356V157.372C448.656 157.353 448.493 157.344 448.409 157.344C447.784 157.344 447.294 157.521 446.939 157.876C446.584 158.221 446.407 158.744 446.407 159.444V163H444.223V155.468H446.309V156.462ZM450.197 155.468H452.381V163H450.197V155.468ZM451.289 154.418C450.888 154.418 450.561 154.301 450.309 154.068C450.057 153.835 449.931 153.545 449.931 153.2C449.931 152.855 450.057 152.565 450.309 152.332C450.561 152.099 450.888 151.982 451.289 151.982C451.691 151.982 452.017 152.094 452.269 152.318C452.521 152.542 452.647 152.822 452.647 153.158C452.647 153.522 452.521 153.825 452.269 154.068C452.017 154.301 451.691 154.418 451.289 154.418ZM461.786 159.262C461.786 159.29 461.772 159.486 461.744 159.85H456.046C456.149 160.317 456.392 160.685 456.774 160.956C457.157 161.227 457.633 161.362 458.202 161.362C458.594 161.362 458.94 161.306 459.238 161.194C459.546 161.073 459.831 160.886 460.092 160.634L461.254 161.894C460.545 162.706 459.509 163.112 458.146 163.112C457.297 163.112 456.546 162.949 455.892 162.622C455.239 162.286 454.735 161.824 454.38 161.236C454.026 160.648 453.848 159.981 453.848 159.234C453.848 158.497 454.021 157.834 454.366 157.246C454.721 156.649 455.202 156.187 455.808 155.86C456.424 155.524 457.11 155.356 457.866 155.356C458.604 155.356 459.271 155.515 459.868 155.832C460.466 156.149 460.932 156.607 461.268 157.204C461.614 157.792 461.786 158.478 461.786 159.262ZM457.88 157.008C457.386 157.008 456.97 157.148 456.634 157.428C456.298 157.708 456.093 158.091 456.018 158.576H459.728C459.654 158.1 459.448 157.722 459.112 157.442C458.776 157.153 458.366 157.008 457.88 157.008ZM465.774 163.112C465.149 163.112 464.538 163.037 463.94 162.888C463.343 162.729 462.867 162.533 462.512 162.3L463.24 160.732C463.576 160.947 463.982 161.124 464.458 161.264C464.934 161.395 465.401 161.46 465.858 161.46C466.782 161.46 467.244 161.231 467.244 160.774C467.244 160.559 467.118 160.405 466.866 160.312C466.614 160.219 466.227 160.139 465.704 160.074C465.088 159.981 464.58 159.873 464.178 159.752C463.777 159.631 463.427 159.416 463.128 159.108C462.839 158.8 462.694 158.361 462.694 157.792C462.694 157.316 462.83 156.896 463.1 156.532C463.38 156.159 463.782 155.869 464.304 155.664C464.836 155.459 465.462 155.356 466.18 155.356C466.712 155.356 467.24 155.417 467.762 155.538C468.294 155.65 468.733 155.809 469.078 156.014L468.35 157.568C467.688 157.195 466.964 157.008 466.18 157.008C465.714 157.008 465.364 157.073 465.13 157.204C464.897 157.335 464.78 157.503 464.78 157.708C464.78 157.941 464.906 158.105 465.158 158.198C465.41 158.291 465.812 158.38 466.362 158.464C466.978 158.567 467.482 158.679 467.874 158.8C468.266 158.912 468.607 159.122 468.896 159.43C469.186 159.738 469.33 160.167 469.33 160.718C469.33 161.185 469.19 161.6 468.91 161.964C468.63 162.328 468.22 162.613 467.678 162.818C467.146 163.014 466.512 163.112 465.774 163.112Z" fill="#241400"/>
<path d="M660.15 153.2V163H658.288L653.402 157.05V163H651.162V153.2H653.038L657.91 159.15V153.2H660.15ZM665.899 163.112C665.105 163.112 664.391 162.949 663.757 162.622C663.131 162.286 662.641 161.824 662.287 161.236C661.932 160.648 661.755 159.981 661.755 159.234C661.755 158.487 661.932 157.82 662.287 157.232C662.641 156.644 663.131 156.187 663.757 155.86C664.391 155.524 665.105 155.356 665.899 155.356C666.692 155.356 667.401 155.524 668.027 155.86C668.652 156.187 669.142 156.644 669.497 157.232C669.851 157.82 670.029 158.487 670.029 159.234C670.029 159.981 669.851 160.648 669.497 161.236C669.142 161.824 668.652 162.286 668.027 162.622C667.401 162.949 666.692 163.112 665.899 163.112ZM665.899 161.32C666.459 161.32 666.916 161.133 667.271 160.76C667.635 160.377 667.817 159.869 667.817 159.234C667.817 158.599 667.635 158.095 667.271 157.722C666.916 157.339 666.459 157.148 665.899 157.148C665.339 157.148 664.877 157.339 664.513 157.722C664.149 158.095 663.967 158.599 663.967 159.234C663.967 159.869 664.149 160.377 664.513 160.76C664.877 161.133 665.339 161.32 665.899 161.32ZM676.346 162.636C676.132 162.795 675.866 162.916 675.548 163C675.24 163.075 674.914 163.112 674.568 163.112C673.672 163.112 672.977 162.883 672.482 162.426C671.997 161.969 671.754 161.297 671.754 160.41V157.316H670.592V155.636H671.754V153.802H673.938V155.636H675.814V157.316H673.938V160.382C673.938 160.699 674.018 160.947 674.176 161.124C674.344 161.292 674.578 161.376 674.876 161.376C675.222 161.376 675.516 161.283 675.758 161.096L676.346 162.636ZM684.718 159.262C684.718 159.29 684.704 159.486 684.676 159.85H678.978C679.081 160.317 679.323 160.685 679.706 160.956C680.089 161.227 680.565 161.362 681.134 161.362C681.526 161.362 681.871 161.306 682.17 161.194C682.478 161.073 682.763 160.886 683.024 160.634L684.186 161.894C683.477 162.706 682.441 163.112 681.078 163.112C680.229 163.112 679.477 162.949 678.824 162.622C678.171 162.286 677.667 161.824 677.312 161.236C676.957 160.648 676.78 159.981 676.78 159.234C676.78 158.497 676.953 157.834 677.298 157.246C677.653 156.649 678.133 156.187 678.74 155.86C679.356 155.524 680.042 155.356 680.798 155.356C681.535 155.356 682.203 155.515 682.8 155.832C683.397 156.149 683.864 156.607 684.2 157.204C684.545 157.792 684.718 158.478 684.718 159.262ZM680.812 157.008C680.317 157.008 679.902 157.148 679.566 157.428C679.23 157.708 679.025 158.091 678.95 158.576H682.66C682.585 158.1 682.38 157.722 682.044 157.442C681.708 157.153 681.297 157.008 680.812 157.008ZM690.624 155.356C691.324 155.356 691.959 155.519 692.528 155.846C693.107 156.163 693.559 156.616 693.886 157.204C694.213 157.783 694.376 158.459 694.376 159.234C694.376 160.009 694.213 160.69 693.886 161.278C693.559 161.857 693.107 162.309 692.528 162.636C691.959 162.953 691.324 163.112 690.624 163.112C689.663 163.112 688.907 162.809 688.356 162.202V165.716H686.172V155.468H688.258V156.336C688.799 155.683 689.588 155.356 690.624 155.356ZM690.246 161.32C690.806 161.32 691.263 161.133 691.618 160.76C691.982 160.377 692.164 159.869 692.164 159.234C692.164 158.599 691.982 158.095 691.618 157.722C691.263 157.339 690.806 157.148 690.246 157.148C689.686 157.148 689.224 157.339 688.86 157.722C688.505 158.095 688.328 158.599 688.328 159.234C688.328 159.869 688.505 160.377 688.86 160.76C689.224 161.133 689.686 161.32 690.246 161.32ZM698.753 155.356C699.92 155.356 700.816 155.636 701.441 156.196C702.066 156.747 702.379 157.582 702.379 158.702V163H700.335V162.062C699.924 162.762 699.159 163.112 698.039 163.112C697.46 163.112 696.956 163.014 696.527 162.818C696.107 162.622 695.785 162.351 695.561 162.006C695.337 161.661 695.225 161.269 695.225 160.83C695.225 160.13 695.486 159.579 696.009 159.178C696.541 158.777 697.358 158.576 698.459 158.576H700.195C700.195 158.1 700.05 157.736 699.761 157.484C699.472 157.223 699.038 157.092 698.459 157.092C698.058 157.092 697.661 157.157 697.269 157.288C696.886 157.409 696.56 157.577 696.289 157.792L695.505 156.266C695.916 155.977 696.406 155.753 696.975 155.594C697.554 155.435 698.146 155.356 698.753 155.356ZM698.585 161.642C698.958 161.642 699.29 161.558 699.579 161.39C699.868 161.213 700.074 160.956 700.195 160.62V159.85H698.697C697.801 159.85 697.353 160.144 697.353 160.732C697.353 161.012 697.46 161.236 697.675 161.404C697.899 161.563 698.202 161.642 698.585 161.642ZM712.11 152.612V163H710.024V162.132C709.482 162.785 708.698 163.112 707.672 163.112C706.962 163.112 706.318 162.953 705.74 162.636C705.17 162.319 704.722 161.866 704.396 161.278C704.069 160.69 703.906 160.009 703.906 159.234C703.906 158.459 704.069 157.778 704.396 157.19C704.722 156.602 705.17 156.149 705.74 155.832C706.318 155.515 706.962 155.356 707.672 155.356C708.633 155.356 709.384 155.659 709.926 156.266V152.612H712.11ZM708.05 161.32C708.6 161.32 709.058 161.133 709.422 160.76C709.786 160.377 709.968 159.869 709.968 159.234C709.968 158.599 709.786 158.095 709.422 157.722C709.058 157.339 708.6 157.148 708.05 157.148C707.49 157.148 707.028 157.339 706.664 157.722C706.3 158.095 706.118 158.599 706.118 159.234C706.118 159.869 706.3 160.377 706.664 160.76C707.028 161.133 707.49 161.32 708.05 161.32ZM716.665 163.112C716.04 163.112 715.428 163.037 714.831 162.888C714.234 162.729 713.758 162.533 713.403 162.3L714.131 160.732C714.467 160.947 714.873 161.124 715.349 161.264C715.825 161.395 716.292 161.46 716.749 161.46C717.673 161.46 718.135 161.231 718.135 160.774C718.135 160.559 718.009 160.405 717.757 160.312C717.505 160.219 717.118 160.139 716.595 160.074C715.979 159.981 715.47 159.873 715.069 159.752C714.668 159.631 714.318 159.416 714.019 159.108C713.73 158.8 713.585 158.361 713.585 157.792C713.585 157.316 713.72 156.896 713.991 156.532C714.271 156.159 714.672 155.869 715.195 155.664C715.727 155.459 716.352 155.356 717.071 155.356C717.603 155.356 718.13 155.417 718.653 155.538C719.185 155.65 719.624 155.809 719.969 156.014L719.241 157.568C718.578 157.195 717.855 157.008 717.071 157.008C716.604 157.008 716.254 157.073 716.021 157.204C715.788 157.335 715.671 157.503 715.671 157.708C715.671 157.941 715.797 158.105 716.049 158.198C716.301 158.291 716.702 158.38 717.253 158.464C717.869 158.567 718.373 158.679 718.765 158.8C719.157 158.912 719.498 159.122 719.787 159.43C720.076 159.738 720.221 160.167 720.221 160.718C720.221 161.185 720.081 161.6 719.801 161.964C719.521 162.328 719.11 162.613 718.569 162.818C718.037 163.014 717.402 163.112 716.665 163.112Z" fill="#241400"/>
<path d="M84.358 269.904C84.918 270.081 85.3567 270.38 85.674 270.8C85.9913 271.211 86.15 271.719 86.15 272.326C86.15 273.185 85.814 273.847 85.142 274.314C84.4793 274.771 83.5087 275 82.23 275H77.162V265.2H81.95C83.1447 265.2 84.0593 265.429 84.694 265.886C85.338 266.343 85.66 266.964 85.66 267.748C85.66 268.224 85.5433 268.649 85.31 269.022C85.086 269.395 84.7687 269.689 84.358 269.904ZM79.416 266.908V269.218H81.67C82.23 269.218 82.6547 269.12 82.944 268.924C83.2333 268.728 83.378 268.439 83.378 268.056C83.378 267.673 83.2333 267.389 82.944 267.202C82.6547 267.006 82.23 266.908 81.67 266.908H79.416ZM82.062 273.292C82.6593 273.292 83.1073 273.194 83.406 272.998C83.714 272.802 83.868 272.499 83.868 272.088C83.868 271.276 83.266 270.87 82.062 270.87H79.416V273.292H82.062ZM91.2971 275.112C90.5037 275.112 89.7897 274.949 89.1551 274.622C88.5297 274.286 88.0397 273.824 87.6851 273.236C87.3304 272.648 87.1531 271.981 87.1531 271.234C87.1531 270.487 87.3304 269.82 87.6851 269.232C88.0397 268.644 88.5297 268.187 89.1551 267.86C89.7897 267.524 90.5037 267.356 91.2971 267.356C92.0904 267.356 92.7997 267.524 93.4251 267.86C94.0504 268.187 94.5404 268.644 94.8951 269.232C95.2497 269.82 95.4271 270.487 95.4271 271.234C95.4271 271.981 95.2497 272.648 94.8951 273.236C94.5404 273.824 94.0504 274.286 93.4251 274.622C92.7997 274.949 92.0904 275.112 91.2971 275.112ZM91.2971 273.32C91.8571 273.32 92.3144 273.133 92.6691 272.76C93.0331 272.377 93.2151 271.869 93.2151 271.234C93.2151 270.599 93.0331 270.095 92.6691 269.722C92.3144 269.339 91.8571 269.148 91.2971 269.148C90.7371 269.148 90.2751 269.339 89.9111 269.722C89.5471 270.095 89.3651 270.599 89.3651 271.234C89.3651 271.869 89.5471 272.377 89.9111 272.76C90.2751 273.133 90.7371 273.32 91.2971 273.32ZM99.8019 267.356C100.969 267.356 101.865 267.636 102.49 268.196C103.115 268.747 103.428 269.582 103.428 270.702V275H101.384V274.062C100.973 274.762 100.208 275.112 99.0879 275.112C98.5092 275.112 98.0052 275.014 97.5759 274.818C97.1559 274.622 96.8339 274.351 96.6099 274.006C96.3859 273.661 96.2739 273.269 96.2739 272.83C96.2739 272.13 96.5352 271.579 97.0579 271.178C97.5899 270.777 98.4065 270.576 99.5079 270.576H101.244C101.244 270.1 101.099 269.736 100.81 269.484C100.521 269.223 100.087 269.092 99.5079 269.092C99.1065 269.092 98.7099 269.157 98.3179 269.288C97.9352 269.409 97.6085 269.577 97.3379 269.792L96.5539 268.266C96.9645 267.977 97.4545 267.753 98.0239 267.594C98.6025 267.435 99.1952 267.356 99.8019 267.356ZM99.6339 273.642C100.007 273.642 100.339 273.558 100.628 273.39C100.917 273.213 101.123 272.956 101.244 272.62V271.85H99.7459C98.8499 271.85 98.4019 272.144 98.4019 272.732C98.4019 273.012 98.5092 273.236 98.7239 273.404C98.9479 273.563 99.2512 273.642 99.6339 273.642ZM107.49 268.462C107.752 268.098 108.102 267.823 108.54 267.636C108.988 267.449 109.502 267.356 110.08 267.356V269.372C109.838 269.353 109.674 269.344 109.59 269.344C108.965 269.344 108.475 269.521 108.12 269.876C107.766 270.221 107.588 270.744 107.588 271.444V275H105.404V267.468H107.49V268.462ZM118.983 264.612V275H116.897V274.132C116.355 274.785 115.571 275.112 114.545 275.112C113.835 275.112 113.191 274.953 112.613 274.636C112.043 274.319 111.595 273.866 111.269 273.278C110.942 272.69 110.779 272.009 110.779 271.234C110.779 270.459 110.942 269.778 111.269 269.19C111.595 268.602 112.043 268.149 112.613 267.832C113.191 267.515 113.835 267.356 114.545 267.356C115.506 267.356 116.257 267.659 116.799 268.266V264.612H118.983ZM114.923 273.32C115.473 273.32 115.931 273.133 116.295 272.76C116.659 272.377 116.841 271.869 116.841 271.234C116.841 270.599 116.659 270.095 116.295 269.722C115.931 269.339 115.473 269.148 114.923 269.148C114.363 269.148 113.901 269.339 113.537 269.722C113.173 270.095 112.991 270.599 112.991 271.234C112.991 271.869 113.173 272.377 113.537 272.76C113.901 273.133 114.363 273.32 114.923 273.32ZM132.739 267.468V273.74C132.739 275.121 132.38 276.148 131.661 276.82C130.942 277.492 129.892 277.828 128.511 277.828C127.783 277.828 127.092 277.739 126.439 277.562C125.786 277.385 125.244 277.128 124.815 276.792L125.683 275.224C126 275.485 126.402 275.691 126.887 275.84C127.372 275.999 127.858 276.078 128.343 276.078C129.099 276.078 129.654 275.905 130.009 275.56C130.373 275.224 130.555 274.711 130.555 274.02V273.698C129.986 274.323 129.192 274.636 128.175 274.636C127.484 274.636 126.85 274.487 126.271 274.188C125.702 273.88 125.249 273.451 124.913 272.9C124.577 272.349 124.409 271.715 124.409 270.996C124.409 270.277 124.577 269.643 124.913 269.092C125.249 268.541 125.702 268.117 126.271 267.818C126.85 267.51 127.484 267.356 128.175 267.356C129.267 267.356 130.098 267.715 130.667 268.434V267.468H132.739ZM128.609 272.844C129.188 272.844 129.659 272.676 130.023 272.34C130.396 271.995 130.583 271.547 130.583 270.996C130.583 270.445 130.396 270.002 130.023 269.666C129.659 269.321 129.188 269.148 128.609 269.148C128.03 269.148 127.554 269.321 127.181 269.666C126.808 270.002 126.621 270.445 126.621 270.996C126.621 271.547 126.808 271.995 127.181 272.34C127.554 272.676 128.03 272.844 128.609 272.844ZM137.81 267.356C138.976 267.356 139.872 267.636 140.498 268.196C141.123 268.747 141.436 269.582 141.436 270.702V275H139.392V274.062C138.981 274.762 138.216 275.112 137.096 275.112C136.517 275.112 136.013 275.014 135.584 274.818C135.164 274.622 134.842 274.351 134.618 274.006C134.394 273.661 134.282 273.269 134.282 272.83C134.282 272.13 134.543 271.579 135.066 271.178C135.598 270.777 136.414 270.576 137.516 270.576H139.252C139.252 270.1 139.107 269.736 138.818 269.484C138.528 269.223 138.094 269.092 137.516 269.092C137.114 269.092 136.718 269.157 136.326 269.288C135.943 269.409 135.616 269.577 135.346 269.792L134.562 268.266C134.972 267.977 135.462 267.753 136.032 267.594C136.61 267.435 137.203 267.356 137.81 267.356ZM137.642 273.642C138.015 273.642 138.346 273.558 138.636 273.39C138.925 273.213 139.13 272.956 139.252 272.62V271.85H137.754C136.858 271.85 136.41 272.144 136.41 272.732C136.41 273.012 136.517 273.236 136.732 273.404C136.956 273.563 137.259 273.642 137.642 273.642ZM153.058 267.356C154.001 267.356 154.748 267.636 155.298 268.196C155.858 268.747 156.138 269.577 156.138 270.688V275H153.954V271.024C153.954 270.427 153.828 269.983 153.576 269.694C153.334 269.395 152.984 269.246 152.526 269.246C152.013 269.246 151.607 269.414 151.308 269.75C151.01 270.077 150.86 270.567 150.86 271.22V275H148.676V271.024C148.676 269.839 148.2 269.246 147.248 269.246C146.744 269.246 146.343 269.414 146.044 269.75C145.746 270.077 145.596 270.567 145.596 271.22V275H143.412V267.468H145.498V268.336C145.778 268.019 146.119 267.776 146.52 267.608C146.931 267.44 147.379 267.356 147.864 267.356C148.396 267.356 148.877 267.463 149.306 267.678C149.736 267.883 150.081 268.187 150.342 268.588C150.65 268.196 151.038 267.893 151.504 267.678C151.98 267.463 152.498 267.356 153.058 267.356ZM165.556 271.262C165.556 271.29 165.542 271.486 165.514 271.85H159.816C159.919 272.317 160.161 272.685 160.544 272.956C160.927 273.227 161.403 273.362 161.972 273.362C162.364 273.362 162.709 273.306 163.008 273.194C163.316 273.073 163.601 272.886 163.862 272.634L165.024 273.894C164.315 274.706 163.279 275.112 161.916 275.112C161.067 275.112 160.315 274.949 159.662 274.622C159.009 274.286 158.505 273.824 158.15 273.236C157.795 272.648 157.618 271.981 157.618 271.234C157.618 270.497 157.791 269.834 158.136 269.246C158.491 268.649 158.971 268.187 159.578 267.86C160.194 267.524 160.88 267.356 161.636 267.356C162.373 267.356 163.041 267.515 163.638 267.832C164.235 268.149 164.702 268.607 165.038 269.204C165.383 269.792 165.556 270.478 165.556 271.262ZM161.65 269.008C161.155 269.008 160.74 269.148 160.404 269.428C160.068 269.708 159.863 270.091 159.788 270.576H163.498C163.423 270.1 163.218 269.722 162.882 269.442C162.546 269.153 162.135 269.008 161.65 269.008ZM169.544 275.112C168.919 275.112 168.307 275.037 167.71 274.888C167.113 274.729 166.637 274.533 166.282 274.3L167.01 272.732C167.346 272.947 167.752 273.124 168.228 273.264C168.704 273.395 169.171 273.46 169.628 273.46C170.552 273.46 171.014 273.231 171.014 272.774C171.014 272.559 170.888 272.405 170.636 272.312C170.384 272.219 169.997 272.139 169.474 272.074C168.858 271.981 168.349 271.873 167.948 271.752C167.547 271.631 167.197 271.416 166.898 271.108C166.609 270.8 166.464 270.361 166.464 269.792C166.464 269.316 166.599 268.896 166.87 268.532C167.15 268.159 167.551 267.869 168.074 267.664C168.606 267.459 169.231 267.356 169.95 267.356C170.482 267.356 171.009 267.417 171.532 267.538C172.064 267.65 172.503 267.809 172.848 268.014L172.12 269.568C171.457 269.195 170.734 269.008 169.95 269.008C169.483 269.008 169.133 269.073 168.9 269.204C168.667 269.335 168.55 269.503 168.55 269.708C168.55 269.941 168.676 270.105 168.928 270.198C169.18 270.291 169.581 270.38 170.132 270.464C170.748 270.567 171.252 270.679 171.644 270.8C172.036 270.912 172.377 271.122 172.666 271.43C172.955 271.738 173.1 272.167 173.1 272.718C173.1 273.185 172.96 273.6 172.68 273.964C172.4 274.328 171.989 274.613 171.448 274.818C170.916 275.014 170.281 275.112 169.544 275.112Z" fill="#241400"/>
<path d="M386.404 265.2C387.272 265.2 388.023 265.345 388.658 265.634C389.302 265.923 389.797 266.334 390.142 266.866C390.487 267.398 390.66 268.028 390.66 268.756C390.66 269.475 390.487 270.105 390.142 270.646C389.797 271.178 389.302 271.589 388.658 271.878C388.023 272.158 387.272 272.298 386.404 272.298H384.43V275H382.162V265.2H386.404ZM386.278 270.45C386.959 270.45 387.477 270.305 387.832 270.016C388.187 269.717 388.364 269.297 388.364 268.756C388.364 268.205 388.187 267.785 387.832 267.496C387.477 267.197 386.959 267.048 386.278 267.048H384.43V270.45H386.278ZM394.211 268.462C394.473 268.098 394.823 267.823 395.261 267.636C395.709 267.449 396.223 267.356 396.801 267.356V269.372C396.559 269.353 396.395 269.344 396.311 269.344C395.686 269.344 395.196 269.521 394.841 269.876C394.487 270.221 394.309 270.744 394.309 271.444V275H392.125V267.468H394.211V268.462ZM405.409 271.262C405.409 271.29 405.395 271.486 405.367 271.85H399.669C399.772 272.317 400.015 272.685 400.397 272.956C400.78 273.227 401.256 273.362 401.825 273.362C402.217 273.362 402.563 273.306 402.861 273.194C403.169 273.073 403.454 272.886 403.715 272.634L404.877 273.894C404.168 274.706 403.132 275.112 401.769 275.112C400.92 275.112 400.169 274.949 399.515 274.622C398.862 274.286 398.358 273.824 398.003 273.236C397.649 272.648 397.471 271.981 397.471 271.234C397.471 270.497 397.644 269.834 397.989 269.246C398.344 268.649 398.825 268.187 399.431 267.86C400.047 267.524 400.733 267.356 401.489 267.356C402.227 267.356 402.894 267.515 403.491 267.832C404.089 268.149 404.555 268.607 404.891 269.204C405.237 269.792 405.409 270.478 405.409 271.262ZM401.503 269.008C401.009 269.008 400.593 269.148 400.257 269.428C399.921 269.708 399.716 270.091 399.641 270.576H403.351C403.277 270.1 403.071 269.722 402.735 269.442C402.399 269.153 401.989 269.008 401.503 269.008ZM409.397 275.112C408.772 275.112 408.161 275.037 407.563 274.888C406.966 274.729 406.49 274.533 406.135 274.3L406.863 272.732C407.199 272.947 407.605 273.124 408.081 273.264C408.557 273.395 409.024 273.46 409.481 273.46C410.405 273.46 410.867 273.231 410.867 272.774C410.867 272.559 410.741 272.405 410.489 272.312C410.237 272.219 409.85 272.139 409.327 272.074C408.711 271.981 408.203 271.873 407.801 271.752C407.4 271.631 407.05 271.416 406.751 271.108C406.462 270.8 406.317 270.361 406.317 269.792C406.317 269.316 406.453 268.896 406.723 268.532C407.003 268.159 407.405 267.869 407.927 267.664C408.459 267.459 409.085 267.356 409.803 267.356C410.335 267.356 410.863 267.417 411.385 267.538C411.917 267.65 412.356 267.809 412.701 268.014L411.973 269.568C411.311 269.195 410.587 269.008 409.803 269.008C409.337 269.008 408.987 269.073 408.753 269.204C408.52 269.335 408.403 269.503 408.403 269.708C408.403 269.941 408.529 270.105 408.781 270.198C409.033 270.291 409.435 270.38 409.985 270.464C410.601 270.567 411.105 270.679 411.497 270.8C411.889 270.912 412.23 271.122 412.519 271.43C412.809 271.738 412.953 272.167 412.953 272.718C412.953 273.185 412.813 273.6 412.533 273.964C412.253 274.328 411.843 274.613 411.301 274.818C410.769 275.014 410.135 275.112 409.397 275.112ZM421.679 271.262C421.679 271.29 421.665 271.486 421.637 271.85H415.939C416.042 272.317 416.284 272.685 416.667 272.956C417.05 273.227 417.526 273.362 418.095 273.362C418.487 273.362 418.832 273.306 419.131 273.194C419.439 273.073 419.724 272.886 419.985 272.634L421.147 273.894C420.438 274.706 419.402 275.112 418.039 275.112C417.19 275.112 416.438 274.949 415.785 274.622C415.132 274.286 414.628 273.824 414.273 273.236C413.918 272.648 413.741 271.981 413.741 271.234C413.741 270.497 413.914 269.834 414.259 269.246C414.614 268.649 415.094 268.187 415.701 267.86C416.317 267.524 417.003 267.356 417.759 267.356C418.496 267.356 419.164 267.515 419.761 267.832C420.358 268.149 420.825 268.607 421.161 269.204C421.506 269.792 421.679 270.478 421.679 271.262ZM417.773 269.008C417.278 269.008 416.863 269.148 416.527 269.428C416.191 269.708 415.986 270.091 415.911 270.576H419.621C419.546 270.1 419.341 269.722 419.005 269.442C418.669 269.153 418.258 269.008 417.773 269.008ZM427.711 267.356C428.644 267.356 429.396 267.636 429.965 268.196C430.544 268.756 430.833 269.587 430.833 270.688V275H428.649V271.024C428.649 270.427 428.518 269.983 428.257 269.694C427.996 269.395 427.618 269.246 427.123 269.246C426.572 269.246 426.134 269.419 425.807 269.764C425.48 270.1 425.317 270.604 425.317 271.276V275H423.133V267.468H425.219V268.35C425.508 268.033 425.868 267.79 426.297 267.622C426.726 267.445 427.198 267.356 427.711 267.356ZM437.671 274.636C437.456 274.795 437.19 274.916 436.873 275C436.565 275.075 436.238 275.112 435.893 275.112C434.997 275.112 434.301 274.883 433.807 274.426C433.321 273.969 433.079 273.297 433.079 272.41V269.316H431.917V267.636H433.079V265.802H435.263V267.636H437.139V269.316H435.263V272.382C435.263 272.699 435.342 272.947 435.501 273.124C435.669 273.292 435.902 273.376 436.201 273.376C436.546 273.376 436.84 273.283 437.083 273.096L437.671 274.636Z" fill="#241400"/>
<path d="M670.382 275.168C669.607 275.168 668.856 275.065 668.128 274.86C667.409 274.645 666.831 274.37 666.392 274.034L667.162 272.326C667.582 272.634 668.081 272.881 668.66 273.068C669.239 273.255 669.817 273.348 670.396 273.348C671.04 273.348 671.516 273.255 671.824 273.068C672.132 272.872 672.286 272.615 672.286 272.298C672.286 272.065 672.193 271.873 672.006 271.724C671.829 271.565 671.595 271.439 671.306 271.346C671.026 271.253 670.643 271.15 670.158 271.038C669.411 270.861 668.8 270.683 668.324 270.506C667.848 270.329 667.437 270.044 667.092 269.652C666.756 269.26 666.588 268.737 666.588 268.084C666.588 267.515 666.742 267.001 667.05 266.544C667.358 266.077 667.82 265.709 668.436 265.438C669.061 265.167 669.822 265.032 670.718 265.032C671.343 265.032 671.955 265.107 672.552 265.256C673.149 265.405 673.672 265.62 674.12 265.9L673.42 267.622C672.515 267.109 671.609 266.852 670.704 266.852C670.069 266.852 669.598 266.955 669.29 267.16C668.991 267.365 668.842 267.636 668.842 267.972C668.842 268.308 669.015 268.56 669.36 268.728C669.715 268.887 670.251 269.045 670.97 269.204C671.717 269.381 672.328 269.559 672.804 269.736C673.28 269.913 673.686 270.193 674.022 270.576C674.367 270.959 674.54 271.477 674.54 272.13C674.54 272.69 674.381 273.203 674.064 273.67C673.756 274.127 673.289 274.491 672.664 274.762C672.039 275.033 671.278 275.168 670.382 275.168ZM680.794 274.636C680.579 274.795 680.313 274.916 679.996 275C679.688 275.075 679.361 275.112 679.016 275.112C678.12 275.112 677.424 274.883 676.93 274.426C676.444 273.969 676.202 273.297 676.202 272.41V269.316H675.04V267.636H676.202V265.802H678.386V267.636H680.262V269.316H678.386V272.382C678.386 272.699 678.465 272.947 678.624 273.124C678.792 273.292 679.025 273.376 679.324 273.376C679.669 273.376 679.963 273.283 680.206 273.096L680.794 274.636ZM685.371 275.112C684.578 275.112 683.864 274.949 683.229 274.622C682.604 274.286 682.114 273.824 681.759 273.236C681.405 272.648 681.227 271.981 681.227 271.234C681.227 270.487 681.405 269.82 681.759 269.232C682.114 268.644 682.604 268.187 683.229 267.86C683.864 267.524 684.578 267.356 685.371 267.356C686.165 267.356 686.874 267.524 687.499 267.86C688.125 268.187 688.615 268.644 688.969 269.232C689.324 269.82 689.501 270.487 689.501 271.234C689.501 271.981 689.324 272.648 688.969 273.236C688.615 273.824 688.125 274.286 687.499 274.622C686.874 274.949 686.165 275.112 685.371 275.112ZM685.371 273.32C685.931 273.32 686.389 273.133 686.743 272.76C687.107 272.377 687.289 271.869 687.289 271.234C687.289 270.599 687.107 270.095 686.743 269.722C686.389 269.339 685.931 269.148 685.371 269.148C684.811 269.148 684.349 269.339 683.985 269.722C683.621 270.095 683.439 270.599 683.439 271.234C683.439 271.869 683.621 272.377 683.985 272.76C684.349 273.133 684.811 273.32 685.371 273.32ZM694.601 275.112C693.798 275.112 693.075 274.949 692.431 274.622C691.796 274.286 691.297 273.824 690.933 273.236C690.578 272.648 690.401 271.981 690.401 271.234C690.401 270.487 690.578 269.82 690.933 269.232C691.297 268.644 691.796 268.187 692.431 267.86C693.075 267.524 693.798 267.356 694.601 267.356C695.394 267.356 696.085 267.524 696.673 267.86C697.27 268.187 697.704 268.658 697.975 269.274L696.281 270.184C695.889 269.493 695.324 269.148 694.587 269.148C694.018 269.148 693.546 269.335 693.173 269.708C692.8 270.081 692.613 270.59 692.613 271.234C692.613 271.878 692.8 272.387 693.173 272.76C693.546 273.133 694.018 273.32 694.587 273.32C695.334 273.32 695.898 272.975 696.281 272.284L697.975 273.208C697.704 273.805 697.27 274.272 696.673 274.608C696.085 274.944 695.394 275.112 694.601 275.112ZM702.412 272.046L701.362 273.082V275H699.178V264.612H701.362V270.492L704.554 267.468H707.158L704.022 270.66L707.438 275H704.792L702.412 272.046Z" fill="#241400"/>
<defs>
<filter id="filter0_d_6_227" x="0" y="0" width="264" height="98" filterUnits="userSpaceOnUse" color-interpolation-filters="sRGB">
<feFlood flood-opacity="0" result="BackgroundImageFix"/>
<feColorMatrix in="SourceAlpha" type="matrix" values="0 0 0 0 0 0 0 0 0 0 0 0 0 0 0 0 0 0 127 0" result="hardAlpha"/>
<feOffset dy="4"/>
<feGaussianBlur stdDeviation="5.5"/>
<feColorMatrix type="matrix" values="0 0 0 0 0 0 0 0 0 0 0 0 0 0 0 0 0 0 0.25 0"/>
<feBlend mode="normal" in2="BackgroundImageFix" result="effect1_dropShadow_6_227"/>
<feBlend mode="normal" in="SourceGraphic" in2="effect1_dropShadow_6_227" result="shape"/>
</filter>
<filter id="filter1_d_6_227" x="0" y="112" width="264" height="98" filterUnits="userSpaceOnUse" color-interpolation-filters="sRGB">
<feFlood flood-opacity="0" result="BackgroundImageFix"/>
<feColorMatrix in="SourceAlpha" type="matrix" values="0 0 0 0 0 0 0 0 0 0 0 0 0 0 0 0 0 0 127 0" result="hardAlpha"/>
<feOffset dy="4"/>
<feGaussianBlur stdDeviation="5.5"/>
<feColorMatrix type="matrix" values="0 0 0 0 0 0 0 0 0 0 0 0 0 0 0 0 0 0 0.25 0"/>
<feBlend mode="normal" in2="BackgroundImageFix" result="effect1_dropShadow_6_227"/>
<feBlend mode="normal" in="SourceGraphic" in2="effect1_dropShadow_6_227" result="shape"/>
</filter>
<filter id="filter2_d_6_227" x="0" y="224" width="264" height="98" filterUnits="userSpaceOnUse" color-interpolation-filters="sRGB">
<feFlood flood-opacity="0" result="BackgroundImageFix"/>
<feColorMatrix in="SourceAlpha" type="matrix" values="0 0 0 0 0 0 0 0 0 0 0 0 0 0 0 0 0 0 127 0" result="hardAlpha"/>
<feOffset dy="4"/>
<feGaussianBlur stdDeviation="5.5"/>
<feColorMatrix type="matrix" values="0 0 0 0 0 0 0 0 0 0 0 0 0 0 0 0 0 0 0.25 0"/>
<feBlend mode="normal" in2="BackgroundImageFix" result="effect1_dropShadow_6_227"/>
<feBlend mode="normal" in="SourceGraphic" in2="effect1_dropShadow_6_227" result="shape"/>
</filter>
<filter id="filter3_d_6_227" x="278" y="0" width="264" height="98" filterUnits="userSpaceOnUse" color-interpolation-filters="sRGB">
<feFlood flood-opacity="0" result="BackgroundImageFix"/>
<feColorMatrix in="SourceAlpha" type="matrix" values="0 0 0 0 0 0 0 0 0 0 0 0 0 0 0 0 0 0 127 0" result="hardAlpha"/>
<feOffset dy="4"/>
<feGaussianBlur stdDeviation="5.5"/>
<feColorMatrix type="matrix" values="0 0 0 0 0 0 0 0 0 0 0 0 0 0 0 0 0 0 0.25 0"/>
<feBlend mode="normal" in2="BackgroundImageFix" result="effect1_dropShadow_6_227"/>
<feBlend mode="normal" in="SourceGraphic" in2="effect1_dropShadow_6_227" result="shape"/>
</filter>
<filter id="filter4_d_6_227" x="278" y="112" width="264" height="98" filterUnits="userSpaceOnUse" color-interpolation-filters="sRGB">
<feFlood flood-opacity="0" result="BackgroundImageFix"/>
<feColorMatrix in="SourceAlpha" type="matrix" values="0 0 0 0 0 0 0 0 0 0 0 0 0 0 0 0 0 0 127 0" result="hardAlpha"/>
<feOffset dy="4"/>
<feGaussianBlur stdDeviation="5.5"/>
<feColorMatrix type="matrix" values="0 0 0 0 0 0 0 0 0 0 0 0 0 0 0 0 0 0 0.25 0"/>
<feBlend mode="normal" in2="BackgroundImageFix" result="effect1_dropShadow_6_227"/>
<feBlend mode="normal" in="SourceGraphic" in2="effect1_dropShadow_6_227" result="shape"/>
</filter>
<filter id="filter5_d_6_227" x="278" y="224" width="264" height="98" filterUnits="userSpaceOnUse" color-interpolation-filters="sRGB">
<feFlood flood-opacity="0" result="BackgroundImageFix"/>
<feColorMatrix in="SourceAlpha" type="matrix" values="0 0 0 0 0 0 0 0 0 0 0 0 0 0 0 0 0 0 127 0" result="hardAlpha"/>
<feOffset dy="4"/>
<feGaussianBlur stdDeviation="5.5"/>
<feColorMatrix type="matrix" values="0 0 0 0 0 0 0 0 0 0 0 0 0 0 0 0 0 0 0.25 0"/>
<feBlend mode="normal" in2="BackgroundImageFix" result="effect1_dropShadow_6_227"/>
<feBlend mode="normal" in="SourceGraphic" in2="effect1_dropShadow_6_227" result="shape"/>
</filter>
<filter id="filter6_d_6_227" x="556" y="0" width="264" height="98" filterUnits="userSpaceOnUse" color-interpolation-filters="sRGB">
<feFlood flood-opacity="0" result="BackgroundImageFix"/>
<feColorMatrix in="SourceAlpha" type="matrix" values="0 0 0 0 0 0 0 0 0 0 0 0 0 0 0 0 0 0 127 0" result="hardAlpha"/>
<feOffset dy="4"/>
<feGaussianBlur stdDeviation="5.5"/>
<feColorMatrix type="matrix" values="0 0 0 0 0 0 0 0 0 0 0 0 0 0 0 0 0 0 0.25 0"/>
<feBlend mode="normal" in2="BackgroundImageFix" result="effect1_dropShadow_6_227"/>
<feBlend mode="normal" in="SourceGraphic" in2="effect1_dropShadow_6_227" result="shape"/>
</filter>
<filter id="filter7_d_6_227" x="556" y="112" width="264" height="98" filterUnits="userSpaceOnUse" color-interpolation-filters="sRGB">
<feFlood flood-opacity="0" result="BackgroundImageFix"/>
<feColorMatrix in="SourceAlpha" type="matrix" values="0 0 0 0 0 0 0 0 0 0 0 0 0 0 0 0 0 0 127 0" result="hardAlpha"/>
<feOffset dy="4"/>
<feGaussianBlur stdDeviation="5.5"/>
<feColorMatrix type="matrix" values="0 0 0 0 0 0 0 0 0 0 0 0 0 0 0 0 0 0 0.25 0"/>
<feBlend mode="normal" in2="BackgroundImageFix" result="effect1_dropShadow_6_227"/>
<feBlend mode="normal" in="SourceGraphic" in2="effect1_dropShadow_6_227" result="shape"/>
</filter>
<filter id="filter8_d_6_227" x="556" y="224" width="264" height="98" filterUnits="userSpaceOnUse" color-interpolation-filters="sRGB">
<feFlood flood-opacity="0" result="BackgroundImageFix"/>
<feColorMatrix in="SourceAlpha" type="matrix" values="0 0 0 0 0 0 0 0 0 0 0 0 0 0 0 0 0 0 127 0" result="hardAlpha"/>
<feOffset dy="4"/>
<feGaussianBlur stdDeviation="5.5"/>
<feColorMatrix type="matrix" values="0 0 0 0 0 0 0 0 0 0 0 0 0 0 0 0 0 0 0.25 0"/>
<feBlend mode="normal" in2="BackgroundImageFix" result="effect1_dropShadow_6_227"/>
<feBlend mode="normal" in="SourceGraphic" in2="effect1_dropShadow_6_227" result="shape"/>
</filter>
</defs>
</svg>
